<?xml version="1.0" standalone="no"?>
<!DOCTYPE svg PUBLIC "-//W3C//DTD SVG 20010904//EN"
 "http://www.w3.org/TR/2001/REC-SVG-20010904/DTD/svg10.dtd">
<svg version="1.0" xmlns="http://www.w3.org/2000/svg"
 width="1672.000000pt" height="436.000000pt" viewBox="0 0 1672.000000 436.000000"
 preserveAspectRatio="xMidYMid meet">
<metadata>
Created by potrace 1.16, written by Peter Selinger 2001-2019
</metadata>
<g transform="translate(0.000000,436.000000) scale(0.100000,-0.100000)"
fill="#000000" stroke="none">
<path d="M7400 3629 c-63 -25 -100 -85 -100 -162 0 -149 169 -221 281 -120 86
78 72 214 -29 271 -42 24 -108 28 -152 11z"/>
<path d="M9150 2895 l0 -745 145 0 145 0 0 745 0 745 -145 0 -145 0 0 -745z"/>
<path d="M12230 2895 l0 -745 145 0 145 0 0 745 0 745 -145 0 -145 0 0 -745z"/>
<path d="M12792 3623 c-84 -41 -117 -156 -70 -238 27 -47 94 -85 148 -85 54 0
121 38 148 85 48 83 13 198 -71 239 -44 20 -112 20 -155 -1z"/>
<path d="M15390 3384 l0 -257 -46 43 c-119 110 -316 146 -483 88 -161 -55
-278 -189 -326 -373 -37 -143 -12 -368 53 -490 40 -72 133 -167 200 -203 191
-102 434 -74 562 65 l40 43 0 -75 0 -75 145 0 145 0 0 745 0 745 -145 0 -145
0 0 -256z m-165 -387 c89 -45 138 -118 158 -232 20 -117 -18 -232 -101 -307
-108 -98 -281 -89 -384 19 -106 112 -112 335 -12 452 34 39 88 74 144 92 45
15 142 3 195 -24z"/>
<path d="M15870 3610 c0 -29 1 -30 50 -30 l50 0 0 -130 0 -130 35 0 35 0 0
130 0 130 45 0 c43 0 45 1 45 30 l0 30 -130 0 -130 0 0 -30z"/>
<path d="M16160 3480 l0 -160 30 0 29 0 3 103 3 102 36 -100 c34 -95 37 -100
66 -103 30 -3 31 -2 64 95 l34 98 3 -97 3 -98 29 0 30 0 0 161 0 160 -42 -3
-41 -3 -34 -99 c-18 -55 -37 -104 -41 -108 -5 -5 -26 41 -46 102 l-38 110 -44
0 -44 0 0 -160z"/>
<path d="M10940 2856 l0 -706 350 0 c216 0 369 4 402 11 126 26 234 103 286
204 37 72 43 215 12 297 -28 74 -102 156 -170 188 l-51 24 38 19 c54 27 110
84 141 142 24 45 27 60 27 155 0 90 -3 112 -24 153 -30 61 -94 125 -155 156
-103 51 -128 54 -503 58 l-353 5 0 -706z m659 439 c65 -38 97 -110 81 -182
-11 -46 -38 -83 -81 -108 -30 -17 -56 -20 -201 -23 l-168 -4 0 172 0 172 168
-4 c145 -3 171 -6 201 -23z m24 -569 c96 -48 127 -187 60 -267 -50 -59 -87
-69 -280 -69 l-173 0 0 181 0 180 178 -3 c150 -3 183 -6 215 -22z"/>
<path d="M5380 3425 l0 -115 185 0 185 0 0 -580 0 -580 145 0 145 0 0 580 0
580 180 0 180 0 0 115 0 115 -510 0 -510 0 0 -115z"/>
<path d="M8350 3279 c-76 -13 -170 -59 -224 -109 l-46 -43 0 72 0 71 -145 0
-145 0 0 -825 0 -825 145 0 145 0 0 333 0 334 40 -37 c82 -76 200 -120 320
-120 243 0 438 167 496 426 24 109 16 282 -19 382 -56 162 -175 282 -324 326
-70 20 -176 27 -243 15z m116 -270 c118 -44 186 -153 186 -299 0 -97 -29 -174
-85 -232 -57 -59 -107 -81 -192 -86 -64 -3 -76 -1 -134 30 -110 57 -168 171
-159 312 7 96 38 165 100 221 82 74 181 92 284 54z"/>
<path d="M10094 3281 c-220 -35 -375 -171 -440 -387 -26 -83 -26 -285 0 -368
62 -204 204 -339 401 -381 211 -44 414 12 544 150 53 57 99 133 116 193 l6 22
-158 0 -158 -1 -20 -31 c-77 -121 -256 -140 -367 -40 -43 38 -88 120 -88 160
l0 22 404 0 403 0 7 58 c8 71 -7 193 -33 267 -55 157 -197 284 -361 323 -65
16 -196 22 -256 13z m183 -253 c78 -19 162 -116 163 -185 l0 -23 -255 0 -255
0 6 28 c23 95 103 173 195 191 46 9 77 7 146 -11z"/>
<path d="M6981 3260 c-61 -22 -112 -57 -158 -109 l-32 -36 -1 78 0 77 -145 0
-145 0 0 -560 0 -560 144 0 145 0 3 328 c3 307 4 330 24 372 42 91 118 130
254 130 l60 0 0 150 0 150 -47 0 c-27 -1 -72 -9 -102 -20z"/>
<path d="M13745 3266 c-62 -20 -116 -51 -157 -89 l-38 -35 0 64 0 64 -145 0
-145 0 0 -560 0 -560 144 0 145 0 3 348 3 347 27 57 c90 193 382 171 442 -33
13 -43 16 -113 16 -386 l0 -333 146 0 145 0 -3 398 c-3 391 -4 398 -27 457
-34 84 -61 124 -120 178 -77 68 -141 90 -281 94 -76 2 -128 -2 -155 -11z"/>
<path d="M1345 2114 c-317 -47 -579 -236 -714 -517 -56 -117 -81 -220 -88
-362 -8 -188 33 -352 131 -520 61 -104 218 -258 326 -318 590 -330 1317 45
1379 711 36 394 -166 752 -520 922 -121 57 -221 81 -364 85 -66 2 -133 1 -150
-1z"/>
<path d="M3715 2113 c-402 -64 -713 -363 -780 -748 -52 -298 35 -588 239 -803
156 -164 342 -256 569 -281 388 -44 761 163 928 514 67 141 80 196 86 367 6
165 -6 243 -59 382 -57 148 -195 321 -332 415 -71 49 -203 109 -291 132 -79
20 -291 34 -360 22z"/>
<path d="M6859 1202 c-75 -39 -112 -100 -117 -194 -7 -122 36 -210 122 -249
49 -22 152 -25 199 -5 149 63 179 318 51 425 -71 58 -171 67 -255 23z m167
-61 c106 -48 115 -241 15 -308 -71 -48 -166 -19 -201 60 -45 98 -10 215 75
253 41 18 63 17 111 -5z"/>
<path d="M7385 1215 c-49 -17 -107 -80 -123 -133 -15 -48 -15 -144 -2 -193 27
-96 100 -149 206 -149 74 0 109 11 147 48 57 54 74 115 35 126 -43 11 -54 6
-67 -30 -18 -51 -63 -76 -125 -71 -40 4 -55 11 -77 35 -91 101 -48 287 70 307
52 9 89 -9 120 -58 22 -34 28 -37 55 -31 17 3 34 8 38 11 10 5 -18 71 -40 97
-45 51 -155 70 -237 41z"/>
<path d="M13004 1211 c-55 -25 -74 -54 -74 -116 0 -84 26 -107 168 -145 61
-16 87 -29 98 -46 32 -48 -16 -94 -97 -94 -33 0 -47 6 -75 34 -19 19 -34 44
-34 56 0 20 -3 22 -37 15 -21 -4 -40 -8 -42 -10 -10 -10 13 -78 34 -104 37
-43 84 -61 159 -61 92 0 141 26 168 87 32 73 10 137 -60 171 -20 11 -70 27
-110 37 -77 18 -104 40 -94 77 7 27 66 51 108 43 36 -6 74 -46 74 -77 0 -18
15 -19 68 -2 18 5 15 45 -8 82 -40 66 -161 92 -246 53z"/>
<path d="M15430 1203 c-42 -22 -59 -40 -84 -83 -27 -47 -31 -64 -31 -130 0
-169 75 -250 230 -249 72 1 107 10 163 44 l32 19 0 98 0 98 -105 0 -105 0 0
-40 0 -40 65 0 65 0 0 -39 c0 -37 -2 -40 -45 -56 -88 -34 -168 -5 -201 72 -18
42 -18 134 0 177 41 99 180 112 223 21 15 -32 20 -35 48 -29 43 9 50 19 36 52
-43 103 -180 143 -291 85z"/>
<path d="M5482 1038 c3 -207 14 -245 78 -280 53 -28 176 -25 221 5 62 41 69
69 69 275 l0 182 -40 0 -40 0 0 -174 c0 -167 -1 -176 -22 -201 -27 -30 -85
-43 -126 -26 -52 22 -57 41 -60 229 l-4 172 -40 0 -40 0 4 -182z"/>
<path d="M5950 980 l0 -240 35 0 35 0 2 167 3 167 105 -165 106 -164 42 -3 42
-3 0 240 0 241 -40 0 -40 0 -2 -162 -3 -162 -104 162 -103 162 -39 0 -39 0 0
-240z"/>
<path d="M6410 980 l0 -240 155 0 155 0 0 40 0 40 -115 0 -115 0 0 200 0 200
-40 0 -40 0 0 -240z"/>
<path d="M7740 980 l0 -240 40 0 40 0 0 88 c0 83 2 90 28 115 l27 26 74 -114
73 -115 50 0 c37 0 47 3 42 13 -4 6 -45 70 -91 140 -46 70 -83 131 -83 135 0
5 21 28 46 52 25 25 64 66 86 93 l40 47 -54 0 -53 0 -92 -100 -93 -100 0 100
0 100 -40 0 -40 0 0 -240z"/>
<path d="M8350 981 l0 -241 40 0 40 0 0 95 0 95 76 0 c89 0 137 19 165 64 23
37 25 115 5 155 -29 55 -59 65 -198 69 l-128 4 0 -241z m242 139 c23 -29 23
-62 -1 -91 -16 -19 -30 -24 -90 -27 l-71 -4 0 77 0 78 72 -5 c59 -5 75 -10 90
-28z"/>
<path d="M8750 981 l0 -241 40 0 40 0 0 100 0 100 39 0 c54 0 85 -28 132 -121
l39 -79 45 0 c25 0 45 2 45 5 0 9 -61 127 -87 168 l-25 39 35 32 c44 40 56 92
36 150 -25 70 -51 81 -205 84 l-134 4 0 -241z m230 156 c32 -16 40 -70 14 -98
-14 -15 -31 -19 -91 -19 l-73 0 0 65 0 65 63 0 c34 0 73 -6 87 -13z"/>
<path d="M9180 980 l0 -240 40 0 40 0 0 240 0 240 -40 0 -40 0 0 -240z"/>
<path d="M9312 1208 c2 -7 42 -116 89 -241 l84 -228 39 3 39 3 83 220 c46 121
87 228 90 238 5 14 -1 17 -39 17 l-44 0 -63 -177 c-34 -98 -64 -179 -65 -181
-1 -1 -30 79 -65 178 l-62 180 -45 0 c-32 0 -44 -4 -41 -12z"/>
<path d="M9876 1212 c-10 -16 -176 -454 -176 -464 0 -5 19 -8 42 -6 l41 3 25
68 25 68 90 -3 89 -3 25 -67 25 -68 44 0 c24 0 44 4 44 8 0 4 -42 111 -94 238
l-93 229 -41 3 c-22 2 -43 -1 -46 -6z"/>
<path d="M10100 1185 l0 -35 75 0 75 0 0 -205 0 -205 40 0 40 0 0 205 0 205
75 0 75 0 0 35 0 35 -190 0 -190 0 0 -35z"/>
<path d="M10530 980 l0 -240 160 0 160 0 0 40 0 40 -120 0 -120 0 0 65 0 65
105 0 105 0 0 40 0 40 -105 0 -105 0 0 60 0 60 115 0 115 0 0 35 0 35 -155 0
-155 0 0 -240z"/>
<path d="M11120 980 l0 -240 98 0 c161 0 228 31 268 125 23 54 23 186 0 240
-39 92 -88 114 -248 115 l-118 0 0 -240z m225 156 c52 -22 75 -67 75 -149 0
-75 -15 -114 -56 -146 -21 -17 -41 -21 -95 -21 l-69 0 0 165 0 165 55 0 c31 0
71 -6 90 -14z"/>
<path d="M11672 1168 c-17 -46 -139 -363 -157 -410 -6 -16 -1 -18 38 -18 l44
0 25 68 25 67 89 3 89 3 25 -68 25 -68 48 -3 48 -3 -14 33 c-7 18 -51 126 -97
241 l-84 207 -42 0 c-42 0 -43 -1 -62 -52z"/>
<path d="M11920 1185 l0 -35 75 0 75 0 0 -205 0 -205 40 0 40 0 0 205 0 205
70 0 70 0 0 35 0 35 -185 0 -185 0 0 -35z"/>
<path d="M12338 991 c-49 -125 -88 -233 -88 -240 0 -15 79 -14 85 2 2 6 14 38
25 70 l21 57 88 0 88 0 27 -70 28 -70 44 0 c24 0 44 2 44 5 0 4 -89 226 -162
403 l-30 72 -41 0 -42 0 -87 -229z"/>
<path d="M13360 980 l0 -240 40 0 40 0 0 110 0 110 105 0 105 0 0 -110 0 -110
40 0 40 0 0 240 0 240 -40 0 -40 0 0 -95 0 -95 -105 0 -105 0 0 95 0 95 -40 0
-40 0 0 -240z"/>
<path d="M13945 1208 c-3 -7 -43 -113 -90 -236 -47 -123 -85 -225 -85 -228 0
-2 19 -4 43 -4 l43 0 24 70 25 71 90 -3 90 -3 25 -67 25 -68 43 0 c23 0 42 3
42 8 1 4 -41 112 -92 239 l-93 233 -43 0 c-25 0 -44 -5 -47 -12z"/>
<path d="M14270 980 l0 -240 40 0 40 0 0 100 0 100 40 0 c53 0 80 -27 127
-125 l35 -75 44 0 c24 0 44 3 44 8 0 4 -24 52 -54 108 l-53 101 36 30 c35 29
36 33 36 96 0 111 -42 137 -220 137 l-115 0 0 -240z m241 141 c24 -30 24 -56
-1 -81 -16 -16 -33 -20 -90 -20 l-70 0 0 66 0 66 71 -4 c60 -3 74 -8 90 -27z"/>
<path d="M14690 980 l0 -240 40 0 40 0 0 240 0 240 -40 0 -40 0 0 -240z"/>
<path d="M14870 981 l0 -241 40 0 40 0 2 161 3 160 103 -160 104 -161 39 0 39
0 0 240 0 240 -40 0 -40 0 -2 -160 -3 -160 -101 158 -102 157 -41 3 -41 3 0
-240z"/>
</g>
</svg>
