<?xml version="1.0" standalone="no"?>
<!DOCTYPE svg PUBLIC "-//W3C//DTD SVG 20010904//EN"
 "http://www.w3.org/TR/2001/REC-SVG-20010904/DTD/svg10.dtd">
<svg version="1.0" xmlns="http://www.w3.org/2000/svg"
 width="219.000000pt" height="238.000000pt" viewBox="0 0 219.000000 238.000000"
 preserveAspectRatio="xMidYMid meet">

<g transform="translate(0.000000,238.000000) scale(0.100000,-0.100000)"
fill="#000000" stroke="none">
<path d="M943 2293 c-125 -272 -142 -303 -167 -313 -41 -15 -31 -20 44 -20 40
0 70 4 70 10 0 6 -11 10 -25 10 -30 0 -30 -1 -4 61 l21 49 88 0 88 0 17 -42
c9 -24 19 -49 22 -55 3 -9 -4 -13 -20 -13 -14 0 -29 -4 -32 -10 -4 -6 25 -10
79 -10 47 0 86 2 86 5 0 3 -11 9 -23 14 -18 7 -43 51 -107 196 -47 102 -88
189 -92 192 -5 2 -25 -31 -45 -74z m62 -85 c17 -39 32 -75 33 -80 2 -4 -28 -8
-67 -8 -39 0 -71 2 -71 5 0 12 64 155 70 155 3 0 19 -32 35 -72z"/>
<path d="M1690 2357 c-57 -18 -116 -85 -129 -146 -22 -102 17 -193 101 -235
116 -58 263 -14 318 94 59 117 8 253 -106 288 -50 15 -136 14 -184 -1z m174
-35 c65 -37 98 -171 62 -255 -24 -58 -59 -81 -129 -85 -52 -3 -67 0 -96 20
-52 35 -74 79 -78 162 -5 91 14 132 77 164 52 27 111 24 164 -6z"/>
<path d="M180 2351 c0 -5 12 -11 28 -13 l27 -3 0 -175 c0 -167 -1 -175 -20
-178 -11 -2 -24 -8 -29 -13 -6 -5 22 -9 69 -9 47 0 75 4 69 9 -5 5 -18 11 -29
13 -19 3 -20 12 -22 153 l-2 150 82 -162 c45 -90 86 -163 90 -163 4 0 46 75
92 167 l84 168 -2 -155 c-2 -146 -3 -155 -22 -158 -11 -2 -24 -8 -29 -13 -6
-5 25 -9 77 -9 51 0 87 4 87 10 0 6 -11 10 -24 10 -22 0 -23 4 -30 90 -4 50
-4 131 0 180 7 86 8 90 30 90 13 0 24 5 24 10 0 6 -26 10 -57 10 l-58 -1 -74
-154 c-41 -85 -78 -155 -82 -155 -4 0 -43 70 -86 155 l-78 155 -57 0 c-32 0
-58 -4 -58 -9z"/>
<path d="M1130 2351 c0 -5 12 -11 26 -13 21 -2 41 -24 96 -103 l68 -100 -2
-75 c-3 -66 -5 -75 -23 -78 -11 -2 -24 -8 -29 -13 -6 -5 27 -9 83 -9 59 0 90
4 86 10 -3 6 -17 10 -31 10 -23 0 -24 2 -24 79 l0 80 56 83 c74 109 83 118
111 118 12 0 23 5 23 10 0 6 -32 10 -76 10 -47 0 -73 -4 -69 -10 3 -5 15 -10
26 -10 10 0 19 -3 19 -7 0 -5 -25 -46 -55 -92 l-54 -84 -50 79 c-28 44 -51 85
-51 92 0 6 11 12 25 12 14 0 25 5 25 10 0 6 -37 10 -90 10 -49 0 -90 -4 -90
-9z"/>
<path d="M189 1823 c-52 -8 -131 -65 -156 -112 -55 -105 -4 -238 109 -285 44
-19 167 -20 218 -3 20 7 36 20 38 30 4 18 2 18 -29 2 -49 -26 -164 -18 -212
15 -52 36 -77 86 -77 156 0 72 22 120 69 151 27 19 48 23 105 23 81 0 116 -17
116 -56 0 -13 5 -24 10 -24 6 0 10 6 10 14 0 7 3 27 6 44 l6 30 -64 11 c-64
11 -98 12 -149 4z"/>
<path d="M1940 1815 c-25 -8 -65 -30 -88 -50 -102 -88 -84 -253 35 -326 52
-32 201 -39 252 -12 49 25 54 47 7 28 -78 -33 -199 -12 -248 42 -51 56 -62
154 -25 223 31 59 74 80 160 80 59 0 71 -3 92 -25 14 -13 25 -31 25 -40 0 -8
5 -15 10 -15 6 0 10 16 10 35 0 19 1 38 3 43 3 9 -96 30 -148 30 -22 0 -60 -6
-85 -13z"/>
<path d="M450 1811 c0 -5 12 -11 28 -13 l27 -3 3 -174 c2 -148 0 -176 -13
-183 -39 -22 -9 -28 128 -26 l142 3 6 48 c6 58 -5 71 -21 23 -14 -42 -23 -46
-111 -46 l-69 0 2 178 3 177 28 3 c15 2 27 8 27 13 0 5 -40 9 -90 9 -49 0 -90
-4 -90 -9z"/>
<path d="M820 1811 c0 -5 10 -11 23 -13 22 -3 22 -4 22 -183 0 -179 0 -180
-22 -183 -13 -2 -23 -8 -23 -13 0 -5 38 -9 85 -9 50 0 85 4 85 10 0 6 -8 10
-18 10 -38 0 -42 19 -42 181 0 87 3 164 6 173 3 9 17 16 30 16 13 0 24 5 24
10 0 6 -35 10 -85 10 -47 0 -85 -4 -85 -9z"/>
<path d="M1056 1811 c5 -5 18 -11 29 -13 19 -3 20 -11 20 -178 0 -172 0 -175
-22 -185 -39 -17 -25 -25 42 -25 37 0 65 4 65 10 0 6 -9 10 -20 10 -11 0 -23
6 -26 13 -2 7 -3 79 -2 161 l3 148 150 -176 c90 -106 156 -175 165 -173 13 2
14 21 11 116 -2 62 0 151 4 197 6 80 8 84 31 84 13 0 24 5 24 10 0 6 -30 10
-70 10 -40 0 -70 -4 -70 -10 0 -5 11 -10 24 -10 31 0 36 -27 36 -189 l-1 -126
-49 55 c-27 30 -91 105 -142 167 l-93 112 -59 1 c-36 0 -56 -4 -50 -9z"/>
<path d="M1580 1810 c0 -5 11 -10 24 -10 13 0 27 -7 30 -16 3 -9 6 -86 6 -173
0 -162 -4 -181 -42 -181 -10 0 -18 -4 -18 -10 0 -6 35 -10 85 -10 47 0 85 4
85 9 0 5 -10 11 -22 13 -23 3 -23 5 -26 186 l-2 182 25 0 c14 0 25 5 25 10 0
6 -35 10 -85 10 -50 0 -85 -4 -85 -10z"/>
<path d="M340 988 c0 -232 6 -278 42 -356 32 -67 130 -162 207 -199 60 -29 66
-30 97 -17 l33 14 11 -43 c44 -169 147 -288 313 -362 l56 -24 82 41 c142 71
235 180 275 326 l17 60 31 -13 c28 -12 37 -10 95 18 80 40 159 110 194 174 49
90 57 147 57 385 l0 218 -320 0 -320 0 0 -162 c1 -304 23 -407 110 -501 42
-44 49 -49 50 -30 0 12 -11 38 -24 58 -42 62 -60 131 -61 235 l0 95 63 3 62 3
0 -239 c0 -272 -6 -319 -55 -419 -41 -82 -112 -152 -204 -202 l-58 -30 -63 37
c-135 78 -220 198 -239 337 l-10 68 51 45 c91 82 127 163 137 302 l6 95 98 3
97 3 0 35 0 34 -227 -2 -228 -3 -3 -232 c-1 -128 0 -233 4 -233 3 0 19 9 35
21 l29 20 2 177 3 177 59 3 58 3 -4 -118 c-4 -138 -26 -200 -97 -270 -46 -46
-120 -93 -146 -93 -25 0 -99 47 -145 92 -87 84 -108 174 -109 466 l-1 152 250
0 250 0 0 -60 0 -60 35 0 35 0 0 95 0 95 -315 0 -315 0 0 -222z m1438 -80 c-3
-232 -3 -233 -31 -290 -30 -60 -107 -139 -170 -173 -28 -15 -42 -17 -64 -9
l-28 9 -3 268 -2 267 -100 0 -100 0 0 80 0 80 251 0 250 0 -3 -232z"/>
</g>
</svg>
